<svg width="500" height="500" viewBox="0 0 500 500" fill="none" xmlns="http://www.w3.org/2000/svg">
    <g clip-path="url(#clip0_8503_1199)">
        <path d="M312.311 317.015L310.772 320.3C315.442 323.131 320.827 324.941 326.635 325.389C336.331 326.138 345.752 322.972 352.959 316.756C357.334 330.455 369.67 340.522 384.502 341.669C387.594 341.907 390.622 341.747 393.544 341.232C409.165 338.477 421.634 325.567 423.183 309.143C423.939 309.252 424.696 309.334 425.453 309.391C445.269 310.921 462.643 296.065 464.184 276.274C464.931 266.686 461.895 257.386 455.635 250.083C449.375 242.779 440.641 238.349 431.043 237.607C423.276 237.008 415.673 238.894 409.172 242.963C406.925 237.939 403.552 233.495 399.244 229.93C393.5 225.175 386.519 222.355 379.055 221.78C369.528 221.044 360.279 224.032 352.989 230.195L339.616 258.74L338.069 262.039L313.863 313.704L312.313 317.013L312.311 317.015ZM381.739 279.366C383.784 280.95 385.091 283.237 385.416 285.802C385.741 288.367 385.045 290.906 383.458 292.952C381.97 294.87 379.866 296.136 377.49 296.555C377.334 296.583 377.174 296.606 377.013 296.627C374.445 296.953 371.903 296.259 369.855 294.675C367.807 293.092 366.503 290.805 366.178 288.24C365.853 285.675 366.549 283.136 368.136 281.09C369.723 279.046 372.01 277.738 374.581 277.414C377.149 277.089 379.691 277.783 381.739 279.366Z" fill="#FCCF2F"/>
        <path d="M193.923 226.906L198.695 225.172L204.074 223.216L298.838 188.763L302.254 187.522L305.67 186.281C302.346 179.057 296.873 172.951 289.874 168.845C292.66 165.632 294.93 161.973 296.546 158.068C298.941 152.287 299.891 146.175 299.374 139.907C297.592 118.299 278.539 102.176 256.905 103.968C246.42 104.836 236.907 109.728 230.108 117.741C223.308 125.755 220.038 135.934 220.901 146.401C221.119 149.05 221.603 151.646 222.345 154.171C218.102 153.073 213.694 152.688 209.296 153.05C198.816 153.917 189.298 158.81 182.499 166.823C175.699 174.837 172.429 185.017 173.292 195.483C174.156 205.949 179.05 215.452 187.07 222.239C189.212 224.051 191.51 225.61 193.926 226.908L193.923 226.906Z" fill="#FCCF2F"/>
        <path d="M233.907 306.086L224.913 336.401L244.673 313.669L233.907 306.086Z" fill="white"/>
        <path d="M229.453 297.606L334.974 200.078L304.015 222.32L277.643 241.267L214.762 286.442L218.673 331.998L228.249 299.712C228.304 299.526 228.376 299.349 228.459 299.178C228.645 298.583 228.98 298.039 229.45 297.604L229.453 297.606Z" fill="white"/>
        <path d="M264.657 241.698L269.222 238.417L274.764 234.436L298.462 217.411L303.994 213.437L308.561 210.154L339.064 188.24L342.11 186.054L345.214 183.822L357.143 175.253L341.813 180.826L338.22 182.132L334.698 183.413L308.067 193.097L304.646 194.338L301.224 195.585L241.327 217.361L237.905 218.606L235.706 219.404L212.238 227.938L204.506 230.749L161.304 246.456L210.93 280.296L264.657 241.698Z" fill="white"/>
        <path d="M352.516 193.713L237.647 299.877L293.821 339.431L304.874 315.839L306.488 312.394L308.139 308.869L330.683 260.753L332.327 257.242L333.949 253.783L362.797 192.21L365.287 186.894L369.001 178.967L369.406 178.101L362.848 184.161L356.479 190.049L352.516 193.713Z" fill="white"/>
        <path d="M417.385 136.563C412.789 136.209 408.277 137.176 404.306 139.324C400.553 132.254 393.341 127.386 385.164 126.753C378.847 126.265 372.718 128.263 367.906 132.38C363.475 136.17 360.646 141.338 359.842 147.057C358.633 146.768 357.396 146.573 356.139 146.477C349.822 145.988 343.694 147.986 338.881 152.103C334.069 156.219 331.148 161.959 330.656 168.266C330.422 171.25 330.76 174.15 331.571 176.859L334.975 175.62L338.391 174.38L379.284 159.513C379.303 159.507 379.321 159.501 379.338 159.496C379.398 159.476 379.458 159.458 379.521 159.439C379.565 159.427 379.61 159.414 379.654 159.404C379.708 159.389 379.763 159.38 379.817 159.368C379.869 159.358 379.921 159.347 379.974 159.34C380.019 159.332 380.065 159.329 380.11 159.323C380.171 159.317 380.233 159.309 380.293 159.306C380.33 159.304 380.366 159.303 380.403 159.303C380.471 159.301 380.54 159.299 380.608 159.299C380.638 159.299 380.665 159.304 380.695 159.303C380.769 159.307 380.846 159.311 380.918 159.318C380.94 159.321 380.963 159.325 380.988 159.327C381.068 159.338 381.146 159.349 381.225 159.364C381.243 159.368 381.258 159.373 381.276 159.377C382.032 159.537 382.725 159.941 383.246 160.534C383.28 160.574 383.316 160.612 383.35 160.653C383.373 160.683 383.395 160.713 383.418 160.743C383.459 160.8 383.501 160.856 383.541 160.915C383.561 160.943 383.578 160.974 383.596 161.005C383.634 161.067 383.672 161.129 383.708 161.194C383.712 161.203 383.718 161.209 383.722 161.218C383.736 161.245 383.746 161.273 383.761 161.302C383.791 161.36 383.819 161.421 383.846 161.48C383.866 161.523 383.882 161.569 383.899 161.612C383.918 161.665 383.94 161.718 383.956 161.771C383.973 161.822 383.989 161.873 384.003 161.924C384.017 161.973 384.03 162.022 384.041 162.072C384.053 162.126 384.065 162.18 384.075 162.235C384.083 162.282 384.092 162.332 384.1 162.379C384.11 162.434 384.114 162.487 384.122 162.542C384.126 162.592 384.13 162.645 384.134 162.696C384.138 162.747 384.14 162.798 384.139 162.849C384.139 162.906 384.139 162.962 384.137 163.016C384.135 163.063 384.134 163.11 384.13 163.157C384.126 163.216 384.119 163.276 384.112 163.336C384.108 163.381 384.101 163.424 384.094 163.466C384.085 163.527 384.073 163.585 384.059 163.646C384.05 163.689 384.04 163.733 384.031 163.776C384.016 163.832 383.999 163.889 383.984 163.943C383.97 163.99 383.957 164.036 383.94 164.083C383.922 164.133 383.904 164.182 383.883 164.232C383.863 164.285 383.843 164.335 383.82 164.386C383.813 164.401 383.806 164.417 383.799 164.433L374.316 184.676L372.207 189.179L370.337 193.17C374.26 199.139 380.808 203.214 388.334 203.795C390.363 203.951 392.373 203.851 394.328 203.506C398.454 202.779 402.327 200.961 405.592 198.169C409.949 194.444 412.756 189.387 413.612 183.784C413.647 183.787 413.679 183.789 413.714 183.792C426.753 184.798 438.185 175.023 439.198 162.003C439.69 155.694 437.692 149.574 433.572 144.77C429.453 139.965 423.707 137.05 417.39 136.562L417.385 136.563Z" fill="#FF4FD8"/>
        <path d="M127.619 364.681C132.913 364.242 137.982 362.377 142.276 359.335C144.711 362.961 147.927 366.004 151.743 368.269C156.675 371.193 162.266 372.595 167.987 372.352L173.399 367.904L185.681 357.811C186.49 357.148 187.501 356.896 188.462 357.025C189.335 357.142 190.17 357.572 190.772 358.305C191.006 358.592 191.191 358.902 191.324 359.226C194.898 353.879 196.76 347.341 196.192 340.452C195.428 331.204 190.413 323.011 182.757 318.099C187.461 312.258 189.752 304.905 189.124 297.286C188.477 289.436 184.808 282.309 178.791 277.218C172.775 272.127 165.133 269.681 157.272 270.331C149.412 270.981 142.275 274.651 137.172 280.66C132.072 286.672 129.619 294.306 130.266 302.156C130.358 303.272 130.515 304.372 130.731 305.459L134.03 303.28L137.446 301.024L160.116 286.059C161.784 284.958 164.027 285.416 165.129 287.08C166.231 288.745 165.771 290.986 164.104 292.087L139.224 308.511L136.166 310.53L134.946 311.335L131.144 313.845L103.094 332.361L99.2856 334.875L95.729 337.221C95.7389 337.388 95.7511 337.555 95.7634 337.722C96.4103 345.572 100.082 352.698 106.096 357.789C112.113 362.88 119.755 365.326 127.616 364.677L127.619 364.681ZM126.162 336.375C125.837 333.811 126.533 331.271 128.12 329.225C129.706 327.18 131.994 325.874 134.565 325.55C137.133 325.224 139.676 325.918 141.723 327.502C143.771 329.085 145.075 331.372 145.4 333.937C145.725 336.502 145.029 339.041 143.443 341.087C141.954 343.006 139.85 344.272 137.475 344.691C137.318 344.718 137.158 344.742 136.997 344.763C134.429 345.088 131.887 344.394 129.839 342.811C127.794 341.227 126.487 338.94 126.162 336.375Z" fill="#FF4FD8"/>
        <path d="M109.573 319.429L116.758 314.686L124.731 309.423L129.685 306.152C127.406 305.798 125.086 305.711 122.768 305.902C109.901 306.967 99.6232 316.162 96.5847 328.003L101.541 324.732L109.573 319.429V319.429Z" fill="#FF4FD8"/>
        <path d="M377.011 296.628C377.171 296.607 377.329 296.584 377.488 296.556C379.864 296.137 381.97 294.87 383.456 292.952C385.043 290.909 385.739 288.369 385.414 285.802C385.088 283.235 383.784 280.95 381.737 279.367C379.689 277.783 377.149 277.089 374.578 277.415C372.007 277.739 369.72 279.045 368.133 281.09C366.546 283.134 365.85 285.673 366.176 288.24C366.501 290.805 367.805 293.092 369.853 294.676C371.9 296.259 374.44 296.954 377.011 296.628Z" fill="black"/>
        <path d="M134.42 206.879C134.578 206.859 134.736 206.836 134.893 206.808C139.945 205.917 143.474 201.193 142.826 196.056C142.156 190.758 137.295 186.997 131.99 187.668C126.693 188.341 122.916 193.197 123.588 198.494C124.257 203.791 129.118 207.552 134.423 206.881L134.42 206.879Z" fill="black"/>
        <path d="M329.636 132.746C329.797 132.725 329.955 132.702 330.114 132.674C332.489 132.255 334.595 130.988 336.082 129.07C337.669 127.027 338.365 124.488 338.039 121.92C337.714 119.353 336.41 117.068 334.362 115.485C332.315 113.901 329.775 113.207 327.204 113.533C324.629 113.86 322.345 115.163 320.759 117.208C319.172 119.254 318.476 121.791 318.801 124.359C319.126 126.923 320.431 129.21 322.478 130.794C324.524 132.378 327.066 133.072 329.636 132.746Z" fill="black"/>
        <path d="M114.875 244.805C115.036 244.784 115.193 244.761 115.352 244.733C117.728 244.314 119.834 243.047 121.32 241.129C122.907 239.086 123.603 236.546 123.278 233.979C122.608 228.682 117.747 224.921 112.443 225.592C109.872 225.916 107.584 227.222 105.998 229.267C104.411 231.311 103.715 233.85 104.04 236.417C104.365 238.982 105.669 241.269 107.717 242.853C109.762 244.437 112.305 245.131 114.875 244.805V244.805Z" fill="black"/>
        <path d="M136.997 344.763C137.158 344.742 137.315 344.719 137.475 344.691C139.85 344.272 141.956 343.005 143.443 341.087C145.029 339.044 145.726 336.504 145.4 333.937C145.075 331.372 143.771 329.085 141.723 327.502C139.675 325.918 137.136 325.224 134.565 325.55C131.994 325.874 129.706 327.18 128.12 329.225C126.533 331.271 125.837 333.808 126.162 336.375C126.487 338.94 127.792 341.227 129.839 342.811C131.884 344.395 134.427 345.089 136.997 344.763Z" fill="black"/>
        <path d="M383.999 161.928C383.985 161.876 383.968 161.825 383.952 161.774C383.935 161.721 383.914 161.669 383.895 161.616C383.877 161.572 383.862 161.526 383.842 161.483C383.816 161.422 383.787 161.363 383.757 161.305C383.742 161.278 383.732 161.25 383.717 161.221C383.713 161.212 383.707 161.206 383.703 161.197C383.667 161.132 383.63 161.07 383.592 161.009C383.574 160.978 383.557 160.949 383.537 160.918C383.497 160.859 383.455 160.803 383.413 160.747C383.391 160.716 383.37 160.683 383.346 160.656C383.314 160.615 383.278 160.577 383.242 160.537C383.165 160.45 383.087 160.369 383.002 160.291C382.967 160.255 382.927 160.223 382.889 160.191C382.84 160.148 382.791 160.108 382.74 160.068C382.709 160.044 382.682 160.017 382.649 159.994C382.632 159.982 382.613 159.97 382.596 159.959C382.554 159.929 382.51 159.901 382.466 159.874C382.378 159.819 382.29 159.766 382.198 159.718C382.147 159.691 382.098 159.665 382.045 159.64C381.997 159.617 381.947 159.596 381.896 159.576C381.836 159.55 381.773 159.527 381.713 159.505C381.671 159.491 381.629 159.476 381.588 159.464C381.482 159.431 381.376 159.401 381.269 159.378C381.251 159.374 381.235 159.369 381.218 159.365C381.139 159.35 381.061 159.339 380.981 159.329C380.958 159.325 380.935 159.32 380.911 159.319C380.836 159.31 380.761 159.306 380.688 159.305C380.658 159.303 380.63 159.3 380.601 159.3C380.532 159.298 380.464 159.302 380.396 159.305C380.36 159.306 380.323 159.305 380.286 159.307C380.226 159.31 380.166 159.318 380.103 159.324C380.058 159.33 380.012 159.333 379.967 159.341C379.914 159.35 379.862 159.36 379.81 159.369C379.755 159.379 379.701 159.388 379.647 159.405C379.602 159.415 379.558 159.428 379.514 159.441C379.453 159.459 379.393 159.477 379.33 159.497C379.312 159.503 379.293 159.509 379.277 159.514L338.384 174.381L334.968 175.622L331.564 176.86L305.66 186.278L302.244 187.519L298.828 188.76L204.064 223.213L198.685 225.169L193.913 226.903L152.196 242.072C150.921 242.536 150.012 243.673 149.842 245.016C149.673 246.362 150.272 247.687 151.391 248.451L207.515 286.725L213.09 351.665C213.097 351.73 213.106 351.794 213.115 351.859C213.121 351.894 213.122 351.931 213.129 351.966C213.148 352.073 213.169 352.182 213.197 352.287L213.198 352.291C213.227 352.399 213.26 352.503 213.3 352.606C213.314 352.643 213.33 352.679 213.347 352.715C213.373 352.779 213.399 352.846 213.43 352.909C213.452 352.954 213.474 352.996 213.497 353.041C213.526 353.095 213.555 353.148 213.587 353.201C213.614 353.246 213.641 353.29 213.671 353.333C213.704 353.384 213.738 353.434 213.773 353.482C213.802 353.523 213.834 353.561 213.865 353.602C213.906 353.654 213.952 353.704 213.995 353.756C214.026 353.789 214.053 353.821 214.083 353.853C214.146 353.917 214.211 353.979 214.281 354.04C214.295 354.052 214.308 354.067 214.322 354.08C214.322 354.08 214.327 354.083 214.33 354.085C214.426 354.169 214.525 354.244 214.628 354.314C214.659 354.336 214.689 354.355 214.719 354.374C214.794 354.422 214.868 354.468 214.944 354.51C214.982 354.531 215.02 354.551 215.058 354.571C215.139 354.613 215.221 354.65 215.305 354.684C215.334 354.696 215.364 354.71 215.393 354.722C215.503 354.764 215.613 354.801 215.726 354.832C215.767 354.845 215.81 354.852 215.851 354.862C215.928 354.88 216.004 354.896 216.08 354.909C216.128 354.918 216.176 354.924 216.226 354.93C216.261 354.934 216.294 354.943 216.329 354.946C216.384 354.951 216.438 354.954 216.495 354.956C216.515 354.958 216.534 354.959 216.557 354.96C216.672 354.964 216.79 354.963 216.906 354.955C216.928 354.953 216.95 354.952 216.971 354.95C217.09 354.942 217.21 354.928 217.326 354.907C217.419 354.891 217.511 354.87 217.6 354.847C217.628 354.842 217.655 354.83 217.684 354.822C217.742 354.805 217.802 354.787 217.86 354.767C217.897 354.753 217.936 354.741 217.973 354.725C218.021 354.707 218.067 354.689 218.114 354.668C218.155 354.651 218.197 354.634 218.237 354.615C218.28 354.595 218.32 354.573 218.363 354.551C218.403 354.529 218.446 354.509 218.486 354.485C218.56 354.443 218.63 354.399 218.7 354.352C218.735 354.329 218.768 354.303 218.802 354.278C218.846 354.246 218.889 354.216 218.93 354.182C218.962 354.157 218.992 354.132 219.022 354.105C219.068 354.064 219.113 354.025 219.157 353.985C219.183 353.964 219.206 353.94 219.231 353.916C219.294 353.856 219.353 353.792 219.41 353.725C219.414 353.72 219.421 353.716 219.425 353.711L219.431 353.702L219.441 353.691L250.604 317.838L293.167 347.811C293.959 348.369 294.935 348.583 295.88 348.416C295.98 348.399 296.081 348.376 296.18 348.351C297.214 348.076 298.075 347.359 298.528 346.389L310.755 320.289L312.295 317.004L313.845 313.695L338.05 262.03L339.597 258.731L352.97 230.186L370.316 193.164L372.187 189.173L374.295 184.67L383.778 164.427C383.785 164.411 383.792 164.395 383.799 164.379C383.822 164.329 383.842 164.276 383.863 164.226C383.881 164.177 383.902 164.129 383.92 164.077C383.936 164.03 383.95 163.983 383.964 163.937C383.981 163.88 383.998 163.826 384.01 163.77C384.022 163.726 384.029 163.683 384.039 163.64C384.05 163.582 384.064 163.521 384.073 163.46C384.08 163.417 384.084 163.373 384.092 163.33C384.098 163.27 384.105 163.21 384.109 163.151C384.113 163.103 384.115 163.057 384.116 163.01C384.118 162.953 384.118 162.897 384.119 162.843C384.117 162.792 384.115 162.741 384.114 162.69C384.11 162.639 384.107 162.586 384.101 162.536C384.096 162.48 384.089 162.428 384.08 162.373C384.071 162.326 384.063 162.276 384.054 162.228C384.045 162.174 384.033 162.12 384.021 162.066C384.009 162.016 383.996 161.967 383.982 161.918L383.999 161.928ZM362.797 192.21L333.951 253.783L332.33 257.244L330.686 260.755L308.142 308.871L306.49 312.396L304.876 315.841L293.823 339.433L237.649 299.876L352.516 193.713L356.479 190.049L362.85 184.161L369.409 178.1L369.003 178.967L365.289 186.896L362.8 192.21L362.797 192.21ZM224.916 336.4L233.909 306.086L244.676 313.668L224.916 336.4V336.4ZM235.706 219.404L237.907 218.605L241.33 217.361L301.226 195.585L304.649 194.34L308.069 193.096L334.698 183.413L338.22 182.132L341.813 180.826L357.142 175.251L345.214 183.822L342.11 186.052L339.066 188.24L308.564 210.153L303.996 213.434L298.464 217.408L274.766 234.434L269.224 238.414L264.661 241.692L210.934 280.29L161.308 246.45L204.51 230.744L212.239 227.933L235.708 219.399L235.706 219.404ZM229.453 297.606C228.983 298.039 228.648 298.585 228.461 299.18C228.381 299.351 228.307 299.525 228.252 299.714L218.675 332L214.765 286.444L277.646 241.269L304.018 222.322L334.977 200.08L229.455 297.608L229.453 297.606Z" fill="black"/>
        <path d="M134.949 311.339L136.169 310.535L139.228 308.515L164.107 292.092C165.774 290.99 166.234 288.75 165.132 287.085C164.03 285.42 161.787 284.962 160.12 286.063L137.45 301.029L134.034 303.284L130.734 305.463L129.688 306.154L124.734 309.425L116.761 314.688L109.576 319.431L101.544 324.734L96.5875 328.005L59.9564 352.181C58.2891 353.282 57.8294 355.523 58.9312 357.187C59.75 358.428 61.2022 358.996 62.58 358.753C63.0527 358.67 63.5182 358.49 63.9439 358.209L95.7298 337.226L99.2864 334.879L103.095 332.366L131.145 313.849L134.947 311.34L134.949 311.339Z" fill="black"/>
        <path d="M262.575 346.114C261.285 344.59 259.001 344.401 257.477 345.692L202.242 392.379C200.716 393.668 200.525 395.95 201.817 397.471C202.68 398.488 203.984 398.911 205.21 398.695C205.821 398.587 206.411 398.322 206.916 397.895L262.151 351.208C263.677 349.919 263.867 347.638 262.575 346.117L262.575 346.114Z" fill="black"/>
        <path d="M121.492 415.237C122.352 416.279 123.673 416.719 124.918 416.499C125.512 416.395 126.087 416.142 126.585 415.731L190.278 363.392C191.536 362.358 191.916 360.655 191.327 359.228C191.194 358.904 191.009 358.591 190.775 358.307C190.171 357.575 189.337 357.142 188.465 357.027C187.504 356.898 186.493 357.15 185.684 357.813L173.402 367.906L167.989 372.354L121.994 410.152C120.451 411.419 120.228 413.697 121.497 415.239L121.492 415.237Z" fill="black"/>
    </g>
    <defs>
        <clipPath id="clip0_8503_1199">
            <rect width="414.596" height="285.035" fill="white" transform="translate(21.2732 145.34) rotate(-10)"/>
        </clipPath>
    </defs>
</svg>